<svg preserveAspectRatio="none" width="100%" height="100%" overflow="visible" style="display: block;" viewBox="0 0 948.702 642" fill="none" xmlns="http://www.w3.org/2000/svg">
<path id="Vector" d="M477.076 1C539.617 1 588.628 24.2234 618.102 64.7539C647.585 105.298 657.64 163.33 641.901 233.173L643.786 233.809C668.097 180.698 714.935 141.515 770.916 138.2H770.966C849.025 136.802 901.1 164.799 927.431 211.72C953.591 258.338 954.493 323.901 929.775 398.527L929.187 400.292C875.355 560.6 684.624 641 489.374 641C294.144 641 95.1633 560.604 25.0098 400.21C-6.81111 327.443 -6.11775 261.245 21.8555 213.642C49.808 166.073 105.155 136.811 183.228 138.199C239.213 141.51 286.054 180.696 310.366 233.809L312.251 233.173C296.512 163.33 306.567 105.298 336.051 64.7539C365.524 24.2233 414.536 1.00005 477.076 1Z" stroke="var(--stroke-0, #103200)" stroke-width="2"/>
</svg>
